<svg width="1351" height="898" viewBox="0 0 1351 898" fill="none" xmlns="http://www.w3.org/2000/svg">
<path fill-rule="evenodd" clip-rule="evenodd" d="M796.255 113.031C814.227 124.133 818.857 147.257 806.596 164.679L766.81 221.216C749.158 246.299 715.688 256.599 686.867 245.817L662.771 236.802L699.175 297.637C709.777 315.353 702.97 338.33 683.972 348.958C664.974 359.586 640.979 353.84 630.378 336.124L575.277 244.045C544.79 193.098 600.748 132.331 658.317 153.869L707.801 172.383L741.514 124.476C753.775 107.053 778.283 101.929 796.255 113.031Z" fill="url(#paint0_linear_334_70)" fill-opacity="0.85"/>
<path opacity="0.8" d="M836.992 223.014C841.131 237.82 832.483 253.178 817.676 257.317C802.87 261.455 787.512 252.808 783.373 238.002C779.234 223.196 787.882 207.838 802.688 203.699C817.495 199.56 832.853 208.208 836.992 223.014Z" fill="#59F9CD"/>
<path d="M829.252 278.05C831.736 286.934 826.547 296.149 817.663 298.632C808.779 301.115 799.564 295.926 797.081 287.043C794.598 278.159 799.786 268.944 808.67 266.461C817.554 263.978 826.769 269.167 829.252 278.05Z" fill="#5DFAC3" fill-opacity="0.8"/>
<path d="M799.175 306.717C800.499 311.455 797.732 316.37 792.994 317.694C788.256 319.019 783.341 316.251 782.017 311.513C780.692 306.775 783.46 301.86 788.198 300.536C792.936 299.212 797.85 301.979 799.175 306.717Z" fill="#62FBB5"/>
<path d="M12.0258 276.314V288.914H39.3258V292.064H8.42583V276.314H12.0258ZM5.22583 250.014H27.2258V270.564H5.22583V250.014ZM23.6258 267.514V253.064H8.82583V267.514H23.6258ZM35.0258 247.864H38.6258V257.964H44.2258V261.014H38.6258V279.414H35.0258V247.864ZM78.5887 281.664V277.064H50.3887V274.014H82.1887V284.664H54.3387V289.714H83.2387V292.764H50.7387V281.664H78.5887ZM47.0387 266.764H86.0387V269.814H47.0387V266.764ZM50.7387 249.164H81.8387V252.214H54.3387V258.914H82.3387V261.964H50.7387V249.164ZM106.452 283.114V264.614H110.052V283.114H129.252V286.214H90.2516V283.114H106.452ZM93.9516 250.914H125.552V274.714H121.952V254.014H93.9516V250.914Z" fill="#757575"/>
<g filter="url(#filter0_d_334_70)">
<path d="M15.0724 48.6172H47.3167L90.4986 154.015H92.2031L135.385 48.6172H167.629V194.072H142.345V94.1428H140.996L100.797 193.646H81.9048L41.7059 93.9297H40.3565V194.072H15.0724V48.6172Z" fill="#59F9CD"/>
<path d="M226.578 196.273C219.665 196.273 213.439 195.042 207.899 192.58C202.407 190.071 198.051 186.378 194.831 181.501C191.659 176.624 190.072 170.611 190.072 163.461C190.072 157.306 191.209 152.216 193.482 148.191C195.754 144.166 198.856 140.947 202.785 138.532C206.715 136.117 211.142 134.294 216.067 133.063C221.038 131.785 226.176 130.862 231.479 130.293C237.871 129.63 243.055 129.039 247.033 128.518C251.01 127.95 253.898 127.097 255.697 125.961C257.544 124.777 258.467 122.954 258.467 120.492V120.066C258.467 114.716 256.881 110.573 253.709 107.637C250.536 104.702 245.967 103.234 240.001 103.234C233.704 103.234 228.709 104.607 225.016 107.353C221.37 110.099 218.908 113.343 217.629 117.083L193.624 113.674C195.517 107.045 198.642 101.505 202.999 97.0547C207.355 92.5566 212.681 89.1949 218.979 86.9695C225.276 84.6968 232.236 83.5604 239.859 83.5604C245.115 83.5604 250.347 84.1759 255.555 85.407C260.764 86.6381 265.522 88.674 269.831 91.515C274.14 94.3085 277.596 98.1201 280.2 102.95C282.852 107.779 284.178 113.816 284.178 121.06V194.072H259.462V179.086H258.609C257.047 182.116 254.845 184.957 252.004 187.609C249.211 190.213 245.683 192.32 241.422 193.93C237.208 195.492 232.26 196.273 226.578 196.273ZM233.254 177.381C238.415 177.381 242.89 176.363 246.678 174.327C250.465 172.244 253.377 169.498 255.413 166.089C257.497 162.68 258.538 158.963 258.538 154.938V142.083C257.733 142.746 256.36 143.362 254.419 143.93C252.525 144.498 250.394 144.995 248.027 145.421C245.66 145.847 243.316 146.226 240.996 146.558C238.676 146.889 236.663 147.173 234.959 147.41C231.124 147.931 227.691 148.783 224.66 149.967C221.63 151.15 219.239 152.808 217.487 154.938C215.735 157.022 214.859 159.72 214.859 163.035C214.859 167.77 216.588 171.345 220.044 173.759C223.5 176.174 227.904 177.381 233.254 177.381ZM333.467 159.839L333.396 128.802H337.516L376.72 84.9809H406.763L358.538 138.674H353.212L333.467 159.839ZM310.03 194.072V48.6172H335.74V194.072H310.03ZM378.496 194.072L342.984 144.427L360.314 126.316L409.249 194.072H378.496ZM467.7 196.202C456.763 196.202 447.317 193.93 439.362 189.384C431.455 184.791 425.371 178.305 421.109 169.924C416.848 161.496 414.717 151.577 414.717 140.166C414.717 128.944 416.848 119.095 421.109 110.62C425.418 102.097 431.431 95.4686 439.149 90.7337C446.867 85.9515 455.934 83.5604 466.351 83.5604C473.074 83.5604 479.419 84.6494 485.385 86.8275C491.398 88.9581 496.701 92.2725 501.294 96.7706C505.934 101.269 509.58 106.998 512.232 113.958C514.883 120.871 516.209 129.11 516.209 138.674V146.558H426.791V129.228H491.564C491.517 124.304 490.451 119.924 488.368 116.089C486.285 112.206 483.373 109.152 479.632 106.927C475.939 104.702 471.63 103.589 466.706 103.589C461.45 103.589 456.834 104.867 452.857 107.424C448.879 109.934 445.778 113.248 443.553 117.367C441.375 121.439 440.262 125.914 440.214 130.791V145.918C440.214 152.263 441.375 157.708 443.695 162.254C446.015 166.752 449.258 170.208 453.425 172.623C457.591 174.99 462.468 176.174 468.055 176.174C471.796 176.174 475.181 175.653 478.212 174.612C481.242 173.523 483.87 171.936 486.095 169.853C488.321 167.77 490.001 165.189 491.138 162.112L515.143 164.81C513.628 171.155 510.74 176.695 506.479 181.43C502.265 186.117 496.867 189.763 490.285 192.367C483.704 194.924 476.176 196.202 467.7 196.202Z" fill="#757575"/>
</g>
<path d="M21.5758 885.094V873.694H7.52583V852.894H39.1258V873.694H25.1758V885.094H42.8258V888.194H3.82583V885.094H21.5758ZM35.5258 870.594V855.994H11.1258V870.594H35.5258ZM66.5387 875.194C63.0721 875.194 60.0887 874.727 57.5887 873.794C55.1221 872.861 53.2221 871.527 51.8887 869.794C50.5887 868.061 49.9387 866.027 49.9387 863.694C49.9387 861.361 50.5887 859.327 51.8887 857.594C53.2221 855.861 55.1221 854.527 57.5887 853.594C60.0887 852.661 63.0721 852.194 66.5387 852.194C70.0054 852.194 72.9721 852.661 75.4387 853.594C77.9387 854.527 79.8387 855.861 81.1387 857.594C82.4721 859.327 83.1387 861.361 83.1387 863.694C83.1387 866.027 82.4721 868.061 81.1387 869.794C79.8387 871.527 77.9387 872.861 75.4387 873.794C72.9721 874.727 70.0054 875.194 66.5387 875.194ZM86.0387 885.094V888.194H47.0387V885.094H86.0387ZM66.5387 872.094C70.5721 872.094 73.7387 871.344 76.0387 869.844C78.3721 868.344 79.5387 866.294 79.5387 863.694C79.5387 861.094 78.3721 859.044 76.0387 857.544C73.7387 856.044 70.5721 855.294 66.5387 855.294C62.5054 855.294 59.3221 856.044 56.9887 857.544C54.6887 859.044 53.5387 861.094 53.5387 863.694C53.5387 866.294 54.6887 868.344 56.9887 869.844C59.3221 871.344 62.5054 872.094 66.5387 872.094ZM106.452 885.094V866.594H110.052V885.094H129.252V888.194H90.2516V885.094H106.452ZM93.9516 852.894H125.552V876.694H121.952V855.994H93.9516V852.894Z" fill="#757575"/>
<g filter="url(#filter1_d_334_70)">
<path d="M112.516 697.047C111.332 693.211 109.698 689.779 107.615 686.748C105.579 683.671 103.117 681.043 100.229 678.865C97.3878 676.687 94.1207 675.053 90.4275 673.964C86.7344 672.828 82.7097 672.26 78.3537 672.26C70.5412 672.26 63.5809 674.225 57.473 678.155C51.365 682.084 46.5592 687.861 43.0554 695.484C39.5989 703.06 37.8707 712.293 37.8707 723.183C37.8707 734.168 39.5989 743.472 43.0554 751.095C46.5118 758.718 51.3177 764.518 57.473 768.495C63.6283 772.425 70.7779 774.39 78.9219 774.39C86.3082 774.39 92.7003 772.97 98.098 770.129C103.543 767.288 107.733 763.263 110.669 758.055C113.605 752.799 115.072 746.644 115.072 739.589L121.038 740.512H81.5497V719.916H140.57V737.387C140.57 749.84 137.918 760.612 132.615 769.703C127.312 778.794 120.02 785.801 110.74 790.726C101.46 795.602 90.8063 798.041 78.7798 798.041C65.3802 798.041 53.6141 795.034 43.4815 789.021C33.3963 782.96 25.5128 774.367 19.8309 763.24C14.1965 752.066 11.3792 738.808 11.3792 723.467C11.3792 711.725 13.0364 701.237 16.3508 692.004C19.7126 682.771 24.4001 674.935 30.4133 668.495C36.4266 662.009 43.4815 657.084 51.5781 653.723C59.6747 650.314 68.4815 648.609 77.9986 648.609C86.0478 648.609 93.5525 649.793 100.513 652.16C107.473 654.48 113.652 657.795 119.05 662.103C124.495 666.412 128.969 671.526 132.473 677.444C135.977 683.363 138.273 689.897 139.362 697.047H112.516Z" fill="#59F9CD"/>
<path d="M196.305 798.254C189.392 798.254 183.165 797.023 177.626 794.561C172.133 792.051 167.777 788.358 164.558 783.481C161.385 778.604 159.799 772.591 159.799 765.441C159.799 759.286 160.935 754.196 163.208 750.172C165.481 746.147 168.582 742.927 172.512 740.512C176.442 738.098 180.869 736.275 185.793 735.044C190.765 733.765 195.902 732.842 201.205 732.274C207.597 731.611 212.782 731.019 216.759 730.498C220.736 729.93 223.625 729.078 225.424 727.941C227.271 726.758 228.194 724.935 228.194 722.473V722.047C228.194 716.696 226.608 712.553 223.435 709.618C220.263 706.682 215.694 705.214 209.728 705.214C203.431 705.214 198.435 706.587 194.742 709.333C191.096 712.08 188.634 715.323 187.356 719.064L163.35 715.655C165.244 709.026 168.369 703.486 172.725 699.035C177.081 694.537 182.408 691.175 188.705 688.95C195.003 686.677 201.963 685.541 209.586 685.541C214.842 685.541 220.074 686.156 225.282 687.387C230.49 688.619 235.249 690.655 239.558 693.495C243.866 696.289 247.323 700.101 249.927 704.93C252.578 709.76 253.904 715.797 253.904 723.041V796.052H229.188V781.066H228.336C226.773 784.097 224.572 786.938 221.731 789.589C218.937 792.193 215.41 794.3 211.148 795.91C206.934 797.473 201.986 798.254 196.305 798.254ZM202.981 779.362C208.142 779.362 212.616 778.344 216.404 776.308C220.192 774.225 223.104 771.478 225.14 768.069C227.223 764.66 228.265 760.943 228.265 756.919V744.064C227.46 744.726 226.087 745.342 224.146 745.91C222.252 746.478 220.121 746.976 217.754 747.402C215.386 747.828 213.042 748.207 210.722 748.538C208.402 748.869 206.39 749.154 204.685 749.39C200.85 749.911 197.417 750.763 194.387 751.947C191.357 753.131 188.966 754.788 187.214 756.919C185.462 759.002 184.586 761.701 184.586 765.015C184.586 769.75 186.314 773.325 189.771 775.74C193.227 778.155 197.63 779.362 202.981 779.362ZM334.231 686.961V706.848H271.518V686.961H334.231ZM287.001 660.825H312.711V763.24C312.711 766.696 313.232 769.348 314.273 771.194C315.362 772.994 316.783 774.225 318.535 774.887C320.287 775.55 322.228 775.882 324.359 775.882C325.968 775.882 327.436 775.763 328.762 775.527C330.135 775.29 331.177 775.077 331.887 774.887L336.219 794.987C334.846 795.46 332.881 795.981 330.325 796.549C327.815 797.118 324.737 797.449 321.092 797.544C314.652 797.733 308.852 796.762 303.691 794.632C298.53 792.454 294.434 789.092 291.404 784.547C288.421 780.001 286.953 774.319 287.001 767.501V660.825ZM383.787 732.132V796.052H358.077V650.598H383.219V705.498H384.497C387.054 699.343 391.008 694.49 396.358 690.939C401.756 687.34 408.621 685.541 416.955 685.541C424.53 685.541 431.135 687.127 436.77 690.299C442.404 693.472 446.76 698.112 449.838 704.22C452.963 710.328 454.526 717.785 454.526 726.592V796.052H428.815V730.569C428.815 723.23 426.921 717.525 423.134 713.453C419.393 709.333 414.137 707.274 407.366 707.274C402.821 707.274 398.749 708.268 395.151 710.257C391.599 712.198 388.806 715.015 386.77 718.708C384.781 722.402 383.787 726.876 383.787 732.132ZM529.028 798.183C518.091 798.183 508.645 795.91 500.69 791.365C492.783 786.772 486.699 780.285 482.437 771.905C478.176 763.476 476.045 753.557 476.045 742.146C476.045 730.924 478.176 721.076 482.437 712.601C486.746 704.078 492.759 697.449 500.477 692.714C508.195 687.932 517.262 685.541 527.679 685.541C534.402 685.541 540.747 686.63 546.713 688.808C552.726 690.939 558.029 694.253 562.622 698.751C567.262 703.249 570.908 708.978 573.56 715.939C576.211 722.851 577.537 731.09 577.537 740.655V748.538H488.119V731.208H552.892C552.845 726.284 551.779 721.905 549.696 718.069C547.613 714.187 544.701 711.133 540.96 708.907C537.267 706.682 532.958 705.569 528.034 705.569C522.778 705.569 518.162 706.848 514.185 709.405C510.207 711.914 507.106 715.228 504.881 719.348C502.703 723.42 501.59 727.894 501.543 732.771V747.899C501.543 754.244 502.703 759.689 505.023 764.234C507.343 768.732 510.586 772.189 514.753 774.603C518.919 776.971 523.796 778.155 529.384 778.155C533.124 778.155 536.509 777.634 539.54 776.592C542.57 775.503 545.198 773.917 547.423 771.833C549.649 769.75 551.33 767.17 552.466 764.092L576.472 766.791C574.956 773.136 572.068 778.675 567.807 783.41C563.593 788.098 558.195 791.744 551.614 794.348C545.032 796.905 537.504 798.183 529.028 798.183ZM599.288 796.052V686.961H624.217V705.143H625.353C627.342 698.846 630.751 693.993 635.58 690.583C640.457 687.127 646.021 685.399 652.271 685.399C653.691 685.399 655.277 685.47 657.029 685.612C658.828 685.707 660.32 685.872 661.504 686.109V709.76C660.415 709.381 658.686 709.049 656.319 708.765C653.999 708.434 651.75 708.268 649.572 708.268C644.884 708.268 640.67 709.286 636.93 711.322C633.236 713.311 630.325 716.081 628.194 719.632C626.063 723.183 624.998 727.279 624.998 731.919V796.052H599.288Z" fill="#757575"/>
</g>
<path d="M1199.47 594.004C1196.14 594.004 1193.26 593.654 1190.82 592.954C1188.42 592.254 1186.57 591.254 1185.27 589.954C1183.97 588.654 1183.32 587.12 1183.32 585.354C1183.32 583.587 1183.97 582.054 1185.27 580.754C1186.57 579.454 1188.42 578.454 1190.82 577.754C1193.26 577.054 1196.14 576.704 1199.47 576.704C1202.81 576.704 1205.67 577.054 1208.07 577.754C1210.51 578.454 1212.37 579.454 1213.67 580.754C1214.97 582.054 1215.62 583.587 1215.62 585.354C1215.62 587.12 1214.97 588.654 1213.67 589.954C1212.37 591.254 1210.51 592.254 1208.07 592.954C1205.67 593.654 1202.81 594.004 1199.47 594.004ZM1199.47 590.954C1203.37 590.954 1206.44 590.454 1208.67 589.454C1210.91 588.454 1212.02 587.087 1212.02 585.354C1212.02 583.62 1210.91 582.254 1208.67 581.254C1206.44 580.254 1203.37 579.754 1199.47 579.754C1195.61 579.754 1192.54 580.254 1190.27 581.254C1188.04 582.254 1186.92 583.62 1186.92 585.354C1186.92 587.087 1188.04 588.454 1190.27 589.454C1192.54 590.454 1195.61 590.954 1199.47 590.954ZM1196.72 568.754V559.554H1200.32V568.754H1218.97V571.804H1179.97V568.754H1196.72ZM1183.67 553.954V550.904H1215.27V564.654H1211.67V553.954H1183.67ZM1223.19 578.704V575.604H1262.19V578.704H1253.09V593.554H1249.49V578.704H1235.99V593.554H1232.39V578.704H1223.19ZM1242.69 570.004C1237.49 570.004 1233.42 569.154 1230.49 567.454C1227.55 565.72 1226.09 563.354 1226.09 560.354C1226.09 557.354 1227.55 555.004 1230.49 553.304C1233.42 551.57 1237.49 550.704 1242.69 550.704C1247.89 550.704 1251.95 551.57 1254.89 553.304C1257.82 555.004 1259.29 557.354 1259.29 560.354C1259.29 563.354 1257.82 565.72 1254.89 567.454C1251.95 569.154 1247.89 570.004 1242.69 570.004ZM1242.69 566.904C1246.72 566.904 1249.89 566.32 1252.19 565.154C1254.52 563.987 1255.69 562.387 1255.69 560.354C1255.69 558.32 1254.52 556.72 1252.19 555.554C1249.89 554.387 1246.72 553.804 1242.69 553.804C1238.65 553.804 1235.47 554.387 1233.14 555.554C1230.84 556.72 1229.69 558.32 1229.69 560.354C1229.69 562.387 1230.84 563.987 1233.14 565.154C1235.47 566.32 1238.65 566.904 1242.69 566.904ZM1278.9 585.804C1276.67 585.804 1274.68 585.337 1272.95 584.404C1271.25 583.437 1269.92 582.087 1268.95 580.354C1268.02 578.62 1267.55 576.604 1267.55 574.304C1267.55 572.004 1268.02 569.987 1268.95 568.254C1269.92 566.52 1271.25 565.187 1272.95 564.254C1274.68 563.287 1276.67 562.804 1278.9 562.804C1281.13 562.804 1283.1 563.287 1284.8 564.254C1286.53 565.187 1287.87 566.52 1288.8 568.254C1289.77 569.987 1290.25 572.004 1290.25 574.304C1290.25 576.604 1289.77 578.62 1288.8 580.354C1287.87 582.087 1286.53 583.437 1284.8 584.404C1283.1 585.337 1281.13 585.804 1278.9 585.804ZM1278.9 582.704C1281.23 582.704 1283.12 581.937 1284.55 580.404C1285.98 578.87 1286.7 576.837 1286.7 574.304C1286.7 571.77 1285.98 569.737 1284.55 568.204C1283.12 566.67 1281.23 565.904 1278.9 565.904C1276.57 565.904 1274.68 566.67 1273.25 568.204C1271.82 569.737 1271.1 571.77 1271.1 574.304C1271.1 576.837 1271.82 578.87 1273.25 580.404C1274.68 581.937 1276.57 582.704 1278.9 582.704ZM1277.1 555.104V548.304H1280.7V555.104H1292.15V558.204H1265.65V555.104H1277.1ZM1301.2 548.854V565.954H1306.8V569.054H1301.2V593.554H1297.6V548.854H1301.2ZM1325.81 584.104V565.604H1329.41V584.104H1348.61V587.204H1309.61V584.104H1325.81ZM1313.31 551.904H1344.91V575.704H1341.31V555.004H1313.31V551.904Z" fill="#757575"/>
<g filter="url(#filter2_d_334_70)">
<path d="M881.379 389.593C880.716 383.391 877.922 378.561 872.998 375.105C868.121 371.648 861.776 369.92 853.964 369.92C848.471 369.92 843.76 370.749 839.83 372.406C835.9 374.063 832.894 376.312 830.81 379.153C828.727 381.994 827.662 385.237 827.614 388.883C827.614 391.913 828.301 394.541 829.674 396.767C831.094 398.992 833.012 400.886 835.427 402.448C837.842 403.964 840.517 405.242 843.452 406.284C846.388 407.325 849.347 408.201 852.33 408.911L865.967 412.321C871.459 413.599 876.738 415.327 881.805 417.505C886.918 419.683 891.487 422.429 895.512 425.744C899.584 429.058 902.804 433.059 905.171 437.747C907.539 442.434 908.722 447.927 908.722 454.224C908.722 462.747 906.544 470.251 902.188 476.738C897.832 483.178 891.535 488.22 883.296 491.866C875.105 495.464 865.185 497.264 853.538 497.264C842.221 497.264 832.397 495.512 824.063 492.008C815.777 488.504 809.29 483.391 804.603 476.667C799.963 469.944 797.453 461.752 797.075 452.093H822.998C823.377 457.16 824.939 461.374 827.685 464.735C830.432 468.097 834.006 470.607 838.41 472.264C842.861 473.921 847.832 474.75 853.325 474.75C859.054 474.75 864.073 473.897 868.381 472.193C872.737 470.441 876.147 468.026 878.609 464.948C881.071 461.823 882.326 458.178 882.373 454.011C882.326 450.223 881.213 447.098 879.035 444.636C876.857 442.126 873.803 440.043 869.873 438.386C865.99 436.681 861.445 435.166 856.236 433.84L839.688 429.579C827.709 426.501 818.239 421.838 811.279 415.588C804.366 409.29 800.91 400.933 800.91 390.517C800.91 381.946 803.23 374.442 807.87 368.002C812.558 361.563 818.926 356.568 826.975 353.017C835.024 349.418 844.139 347.619 854.319 347.619C864.641 347.619 873.684 349.418 881.45 353.017C889.262 356.568 895.394 361.516 899.844 367.86C904.295 374.158 906.592 381.402 906.734 389.593H881.379Z" fill="#59F9CD"/>
<path d="M956.787 431.142V495.062H931.077V349.607H956.219V404.508H957.497C960.054 398.353 964.008 393.5 969.358 389.948C974.756 386.35 981.621 384.551 989.955 384.551C997.53 384.551 1004.14 386.137 1009.77 389.309C1015.4 392.482 1019.76 397.122 1022.84 403.23C1025.96 409.338 1027.53 416.795 1027.53 425.602V495.062H1001.82V429.579C1001.82 422.24 999.921 416.535 996.134 412.463C992.393 408.343 987.137 406.284 980.366 406.284C975.821 406.284 971.749 407.278 968.151 409.267C964.599 411.208 961.806 414.025 959.77 417.718C957.781 421.411 956.787 425.886 956.787 431.142ZM1085.12 497.264C1078.21 497.264 1071.99 496.033 1066.45 493.571C1060.95 491.061 1056.6 487.368 1053.38 482.491C1050.21 477.614 1048.62 471.601 1048.62 464.451C1048.62 458.296 1049.76 453.206 1052.03 449.181C1054.3 445.157 1057.4 441.937 1061.33 439.522C1065.26 437.107 1069.69 435.285 1074.61 434.053C1079.59 432.775 1084.72 431.852 1090.03 431.284C1096.42 430.621 1101.6 430.029 1105.58 429.508C1109.56 428.94 1112.45 428.088 1114.24 426.951C1116.09 425.767 1117.01 423.945 1117.01 421.482V421.056C1117.01 415.706 1115.43 411.563 1112.26 408.627C1109.08 405.692 1104.51 404.224 1098.55 404.224C1092.25 404.224 1087.26 405.597 1083.56 408.343C1079.92 411.089 1077.45 414.333 1076.18 418.073L1052.17 414.664C1054.06 408.035 1057.19 402.496 1061.55 398.045C1065.9 393.547 1071.23 390.185 1077.53 387.96C1083.82 385.687 1090.78 384.551 1098.41 384.551C1103.66 384.551 1108.89 385.166 1114.1 386.397C1119.31 387.628 1124.07 389.664 1128.38 392.505C1132.69 395.299 1136.14 399.11 1138.75 403.94C1141.4 408.769 1142.72 414.806 1142.72 422.051V495.062H1118.01V480.076H1117.16C1115.59 483.107 1113.39 485.947 1110.55 488.599C1107.76 491.203 1104.23 493.31 1099.97 494.92C1095.75 496.482 1090.81 497.264 1085.12 497.264ZM1091.8 478.372C1096.96 478.372 1101.44 477.354 1105.22 475.318C1109.01 473.234 1111.92 470.488 1113.96 467.079C1116.04 463.67 1117.09 459.953 1117.09 455.928V443.073C1116.28 443.736 1114.91 444.352 1112.97 444.92C1111.07 445.488 1108.94 445.985 1106.57 446.411C1104.21 446.838 1101.86 447.216 1099.54 447.548C1097.22 447.879 1095.21 448.163 1093.51 448.4C1089.67 448.921 1086.24 449.773 1083.21 450.957C1080.18 452.141 1077.79 453.798 1076.03 455.928C1074.28 458.012 1073.41 460.711 1073.41 464.025C1073.41 468.76 1075.13 472.335 1078.59 474.75C1082.05 477.164 1086.45 478.372 1091.8 478.372ZM1168.58 495.062V385.971H1193.51V404.153H1194.64C1196.63 397.856 1200.04 393.002 1204.87 389.593C1209.75 386.137 1215.31 384.409 1221.56 384.409C1222.98 384.409 1224.57 384.48 1226.32 384.622C1228.12 384.716 1229.61 384.882 1230.79 385.119V408.769C1229.7 408.391 1227.98 408.059 1225.61 407.775C1223.29 407.444 1221.04 407.278 1218.86 407.278C1214.17 407.278 1209.96 408.296 1206.22 410.332C1202.53 412.321 1199.61 415.09 1197.48 418.642C1195.35 422.193 1194.29 426.288 1194.29 430.928V495.062H1168.58ZM1291.68 497.193C1280.74 497.193 1271.29 494.92 1263.34 490.375C1255.43 485.782 1249.35 479.295 1245.09 470.914C1240.82 462.486 1238.69 452.567 1238.69 441.156C1238.69 429.934 1240.82 420.086 1245.09 411.61C1249.39 403.088 1255.41 396.459 1263.13 391.724C1270.84 386.942 1279.91 384.551 1290.33 384.551C1297.05 384.551 1303.4 385.64 1309.36 387.818C1315.37 389.948 1320.68 393.263 1325.27 397.761C1329.91 402.259 1333.56 407.988 1336.21 414.948C1338.86 421.861 1340.19 430.1 1340.19 439.664V447.548H1250.77V430.218H1315.54C1315.49 425.294 1314.43 420.914 1312.34 417.079C1310.26 413.196 1307.35 410.143 1303.61 407.917C1299.92 405.692 1295.61 404.579 1290.68 404.579C1285.43 404.579 1280.81 405.857 1276.83 408.414C1272.86 410.924 1269.75 414.238 1267.53 418.357C1265.35 422.429 1264.24 426.904 1264.19 431.781V446.909C1264.19 453.253 1265.35 458.698 1267.67 463.244C1269.99 467.742 1273.23 471.198 1277.4 473.613C1281.57 475.981 1286.44 477.164 1292.03 477.164C1295.77 477.164 1299.16 476.643 1302.19 475.602C1305.22 474.513 1307.85 472.927 1310.07 470.843C1312.3 468.76 1313.98 466.179 1315.11 463.102L1339.12 465.801C1337.6 472.145 1334.72 477.685 1330.46 482.42C1326.24 487.107 1320.84 490.753 1314.26 493.357C1307.68 495.914 1300.15 497.193 1291.68 497.193Z" fill="#757575"/>
</g>
<defs>
<filter id="filter0_d_334_70" x="5.07245" y="40.6172" width="521.136" height="167.656" filterUnits="userSpaceOnUse" color-interpolation-filters="sRGB">
<feFlood flood-opacity="0" result="BackgroundImageFix"/>
<feColorMatrix in="SourceAlpha" type="matrix" values="0 0 0 0 0 0 0 0 0 0 0 0 0 0 0 0 0 0 127 0" result="hardAlpha"/>
<feOffset dy="2"/>
<feGaussianBlur stdDeviation="5"/>
<feComposite in2="hardAlpha" operator="out"/>
<feColorMatrix type="matrix" values="0 0 0 0 0 0 0 0 0 0 0 0 0 0 0 0 0 0 0.08 0"/>
<feBlend mode="normal" in2="BackgroundImageFix" result="effect1_dropShadow_334_70"/>
<feBlend mode="normal" in="SourceGraphic" in2="effect1_dropShadow_334_70" result="shape"/>
</filter>
<filter id="filter1_d_334_70" x="1.37921" y="640.609" width="670.124" height="169.645" filterUnits="userSpaceOnUse" color-interpolation-filters="sRGB">
<feFlood flood-opacity="0" result="BackgroundImageFix"/>
<feColorMatrix in="SourceAlpha" type="matrix" values="0 0 0 0 0 0 0 0 0 0 0 0 0 0 0 0 0 0 127 0" result="hardAlpha"/>
<feOffset dy="2"/>
<feGaussianBlur stdDeviation="5"/>
<feComposite in2="hardAlpha" operator="out"/>
<feColorMatrix type="matrix" values="0 0 0 0 0 0 0 0 0 0 0 0 0 0 0 0 0 0 0.08 0"/>
<feBlend mode="normal" in2="BackgroundImageFix" result="effect1_dropShadow_334_70"/>
<feBlend mode="normal" in="SourceGraphic" in2="effect1_dropShadow_334_70" result="shape"/>
</filter>
<filter id="filter2_d_334_70" x="787.074" y="339.619" width="563.111" height="169.645" filterUnits="userSpaceOnUse" color-interpolation-filters="sRGB">
<feFlood flood-opacity="0" result="BackgroundImageFix"/>
<feColorMatrix in="SourceAlpha" type="matrix" values="0 0 0 0 0 0 0 0 0 0 0 0 0 0 0 0 0 0 127 0" result="hardAlpha"/>
<feOffset dy="2"/>
<feGaussianBlur stdDeviation="5"/>
<feComposite in2="hardAlpha" operator="out"/>
<feColorMatrix type="matrix" values="0 0 0 0 0 0 0 0 0 0 0 0 0 0 0 0 0 0 0.08 0"/>
<feBlend mode="normal" in2="BackgroundImageFix" result="effect1_dropShadow_334_70"/>
<feBlend mode="normal" in="SourceGraphic" in2="effect1_dropShadow_334_70" result="shape"/>
</filter>
<linearGradient id="paint0_linear_334_70" x1="676.927" y1="133.065" x2="733.728" y2="336.278" gradientUnits="userSpaceOnUse">
<stop stop-color="#38F9D7"/>
<stop offset="1" stop-color="#88FFA9"/>
</linearGradient>
</defs>
</svg>
