<svg width="1350" height="831" viewBox="0 0 1350 831" fill="none" xmlns="http://www.w3.org/2000/svg">
<path d="M9.064 268.288V279.376H33.088V282.148H5.896V268.288H9.064ZM3.08 245.144H22.44V263.228H3.08V245.144ZM19.272 260.544V247.828H6.248V260.544H19.272ZM29.304 243.252H32.472V252.14H37.4V254.824H32.472V271.016H29.304V243.252ZM67.6393 272.996V268.948H42.8233V266.264H70.8073V275.636H46.2993V280.08H71.7313V282.764H43.1313V272.996H67.6393ZM39.8753 259.884H74.1953V262.568H39.8753V259.884ZM43.1313 244.396H70.4993V247.08H46.2993V252.976H70.9393V255.66H43.1313V244.396ZM92.1587 274.272V257.992H95.3267V274.272H112.223V277H77.9027V274.272H92.1587ZM81.1587 245.936H108.967V266.88H105.799V248.664H81.1587V245.936Z" fill="#757575"/>
<g filter="url(#filter0_d_869_3)">
<path d="M14.3466 48.5415H46.5909L89.7727 153.939H91.4773L134.659 48.5415H166.903V193.996H141.619V94.0671H140.27L100.071 193.57H81.179L40.9801 93.854H39.6307V193.996H14.3466V48.5415Z" fill="#59F9CD"/>
<path d="M225.852 196.198C218.939 196.198 212.713 194.967 207.173 192.505C201.681 189.995 197.325 186.302 194.105 181.425C190.933 176.548 189.347 170.535 189.347 163.385C189.347 157.23 190.483 152.14 192.756 148.115C195.028 144.091 198.13 140.871 202.06 138.456C205.99 136.042 210.417 134.219 215.341 132.988C220.313 131.709 225.45 130.786 230.753 130.218C237.145 129.555 242.33 128.963 246.307 128.442C250.284 127.874 253.172 127.022 254.972 125.885C256.818 124.702 257.741 122.879 257.741 120.417V119.99C257.741 114.64 256.155 110.497 252.983 107.561C249.811 104.626 245.241 103.158 239.276 103.158C232.978 103.158 227.983 104.531 224.29 107.277C220.644 110.024 218.182 113.267 216.903 117.007L192.898 113.598C194.792 106.97 197.917 101.43 202.273 96.979C206.629 92.4809 211.955 89.1192 218.253 86.8938C224.55 84.6211 231.51 83.4847 239.134 83.4847C244.389 83.4847 249.621 84.1003 254.83 85.3313C260.038 86.5624 264.796 88.5984 269.105 91.4393C273.414 94.2328 276.87 98.0444 279.474 102.874C282.126 107.703 283.452 113.74 283.452 120.985V193.996H258.736V179.01H257.884C256.321 182.041 254.119 184.882 251.278 187.533C248.485 190.137 244.957 192.244 240.696 193.854C236.482 195.417 231.534 196.198 225.852 196.198ZM232.528 177.306C237.689 177.306 242.164 176.288 245.952 174.252C249.74 172.168 252.652 169.422 254.688 166.013C256.771 162.604 257.812 158.887 257.812 154.863V142.007C257.008 142.67 255.634 143.286 253.693 143.854C251.799 144.422 249.669 144.919 247.301 145.346C244.934 145.772 242.59 146.15 240.27 146.482C237.95 146.813 235.938 147.097 234.233 147.334C230.398 147.855 226.965 148.707 223.935 149.891C220.904 151.075 218.513 152.732 216.761 154.863C215.009 156.946 214.134 159.645 214.134 162.959C214.134 167.694 215.862 171.269 219.318 173.684C222.775 176.098 227.178 177.306 232.528 177.306ZM332.741 159.763L332.67 128.726H336.79L375.994 84.9052H406.037L357.812 138.598H352.486L332.741 159.763ZM309.304 193.996V48.5415H335.014V193.996H309.304ZM377.77 193.996L342.259 144.351L359.588 126.24L408.523 193.996H377.77ZM466.974 196.127C456.037 196.127 446.591 193.854 438.636 189.309C430.729 184.716 424.645 178.229 420.384 169.848C416.122 161.42 413.991 151.501 413.991 140.09C413.991 128.868 416.122 119.02 420.384 110.544C424.692 102.022 430.705 95.3929 438.423 90.658C446.141 85.8758 455.208 83.4847 465.625 83.4847C472.348 83.4847 478.693 84.5737 484.659 86.7518C490.672 88.8825 495.975 92.1968 500.568 96.695C505.208 101.193 508.854 106.922 511.506 113.882C514.157 120.795 515.483 129.034 515.483 138.598V146.482H426.065V129.152H490.838C490.791 124.228 489.725 119.848 487.642 116.013C485.559 112.131 482.647 109.077 478.906 106.851C475.213 104.626 470.904 103.513 465.98 103.513C460.724 103.513 456.108 104.792 452.131 107.348C448.153 109.858 445.052 113.172 442.827 117.292C440.649 121.364 439.536 125.838 439.489 130.715V145.843C439.489 152.187 440.649 157.632 442.969 162.178C445.289 166.676 448.532 170.132 452.699 172.547C456.866 174.915 461.742 176.098 467.33 176.098C471.07 176.098 474.455 175.578 477.486 174.536C480.516 173.447 483.144 171.861 485.369 169.777C487.595 167.694 489.276 165.114 490.412 162.036L514.418 164.735C512.902 171.079 510.014 176.619 505.753 181.354C501.539 186.042 496.141 189.687 489.56 192.292C482.978 194.848 475.45 196.127 466.974 196.127Z" fill="#757575"/>
</g>
<path d="M17.468 814.276V804.244H5.104V785.94H32.912V804.244H20.636V814.276H36.168V817.004H1.848V814.276H17.468ZM29.744 801.516V788.668H8.272V801.516H29.744ZM57.0353 805.564C53.9847 805.564 51.3593 805.154 49.1593 804.332C46.9887 803.511 45.3167 802.338 44.1433 800.812C42.9993 799.287 42.4273 797.498 42.4273 795.444C42.4273 793.391 42.9993 791.602 44.1433 790.076C45.3167 788.551 46.9887 787.378 49.1593 786.556C51.3593 785.735 53.9847 785.324 57.0353 785.324C60.086 785.324 62.6967 785.735 64.8673 786.556C67.0673 787.378 68.7393 788.551 69.8833 790.076C71.0567 791.602 71.6433 793.391 71.6433 795.444C71.6433 797.498 71.0567 799.287 69.8833 800.812C68.7393 802.338 67.0673 803.511 64.8673 804.332C62.6967 805.154 60.086 805.564 57.0353 805.564ZM74.1953 814.276V817.004H39.8753V814.276H74.1953ZM57.0353 802.836C60.5847 802.836 63.3713 802.176 65.3953 800.856C67.4487 799.536 68.4753 797.732 68.4753 795.444C68.4753 793.156 67.4487 791.352 65.3953 790.032C63.3713 788.712 60.5847 788.052 57.0353 788.052C53.486 788.052 50.6847 788.712 48.6313 790.032C46.6073 791.352 45.5953 793.156 45.5953 795.444C45.5953 797.732 46.6073 799.536 48.6313 800.856C50.6847 802.176 53.486 802.836 57.0353 802.836ZM92.1587 814.276V797.996H95.3267V814.276H112.223V817.004H77.9027V814.276H92.1587ZM81.1587 785.94H108.967V806.884H105.799V788.668H81.1587V785.94Z" fill="#757575"/>
<g filter="url(#filter1_d_869_3)">
<path d="M111.79 634.994C110.606 631.159 108.973 627.726 106.889 624.696C104.853 621.618 102.391 618.991 99.5028 616.812C96.6619 614.634 93.3949 613.001 89.7017 611.912C86.0085 610.776 81.9839 610.207 77.6278 610.207C69.8153 610.207 62.8551 612.172 56.7472 616.102C50.6392 620.032 45.8333 625.809 42.3295 633.432C38.8731 641.008 37.1449 650.241 37.1449 661.131C37.1449 672.116 38.8731 681.42 42.3295 689.043C45.786 696.666 50.5919 702.466 56.7472 706.443C62.9025 710.373 70.0521 712.338 78.196 712.338C85.5824 712.338 91.9744 710.918 97.3722 708.077C102.817 705.236 107.008 701.211 109.943 696.003C112.879 690.747 114.347 684.592 114.347 677.537L120.312 678.46H80.8239V657.864H139.844V675.335C139.844 687.788 137.192 698.56 131.889 707.651C126.586 716.741 119.295 723.749 110.014 728.673C100.734 733.55 90.0805 735.989 78.054 735.989C64.6544 735.989 52.8883 732.982 42.7557 726.969C32.6705 720.908 24.7869 712.314 19.1051 701.188C13.4706 690.013 10.6534 676.756 10.6534 661.415C10.6534 649.672 12.3106 639.185 15.625 629.952C18.9867 620.719 23.6742 612.883 29.6875 606.443C35.7008 599.956 42.7557 595.032 50.8523 591.67C58.9489 588.261 67.7557 586.557 77.2727 586.557C85.322 586.557 92.8267 587.741 99.7869 590.108C106.747 592.428 112.926 595.742 118.324 600.051C123.769 604.36 128.243 609.473 131.747 615.392C135.251 621.311 137.547 627.845 138.636 634.994H111.79Z" fill="#59F9CD"/>
<path d="M195.579 736.202C188.666 736.202 182.44 734.971 176.9 732.509C171.407 729.999 167.051 726.306 163.832 721.429C160.659 716.552 159.073 710.539 159.073 703.389C159.073 697.234 160.21 692.144 162.482 688.119C164.755 684.095 167.856 680.875 171.786 678.46C175.716 676.045 180.143 674.223 185.067 672.991C190.039 671.713 195.176 670.79 200.479 670.222C206.871 669.559 212.056 668.967 216.033 668.446C220.011 667.878 222.899 667.026 224.698 665.889C226.545 664.705 227.468 662.883 227.468 660.42V659.994C227.468 654.644 225.882 650.501 222.71 647.565C219.537 644.63 214.968 643.162 209.002 643.162C202.705 643.162 197.71 644.535 194.016 647.281C190.371 650.027 187.908 653.271 186.63 657.011L162.624 653.602C164.518 646.973 167.643 641.434 171.999 636.983C176.355 632.485 181.682 629.123 187.979 626.898C194.277 624.625 201.237 623.489 208.86 623.489C214.116 623.489 219.348 624.104 224.556 625.335C229.764 626.566 234.523 628.602 238.832 631.443C243.14 634.237 246.597 638.048 249.201 642.878C251.853 647.707 253.178 653.744 253.178 660.989V734H228.462V719.014H227.61C226.048 722.045 223.846 724.885 221.005 727.537C218.211 730.141 214.684 732.248 210.423 733.858C206.209 735.42 201.261 736.202 195.579 736.202ZM202.255 717.31C207.416 717.31 211.89 716.292 215.678 714.256C219.466 712.172 222.378 709.426 224.414 706.017C226.497 702.608 227.539 698.891 227.539 694.866V682.011C226.734 682.674 225.361 683.29 223.42 683.858C221.526 684.426 219.395 684.923 217.028 685.349C214.66 685.776 212.317 686.154 209.996 686.486C207.676 686.817 205.664 687.101 203.96 687.338C200.124 687.859 196.692 688.711 193.661 689.895C190.631 691.079 188.24 692.736 186.488 694.866C184.736 696.95 183.86 699.649 183.86 702.963C183.86 707.698 185.588 711.273 189.045 713.688C192.501 716.102 196.905 717.31 202.255 717.31ZM333.505 624.909V644.795H270.792V624.909H333.505ZM286.275 598.773H311.985V701.188C311.985 704.644 312.506 707.295 313.548 709.142C314.637 710.941 316.057 712.172 317.809 712.835C319.561 713.498 321.502 713.83 323.633 713.83C325.243 713.83 326.71 713.711 328.036 713.474C329.409 713.238 330.451 713.025 331.161 712.835L335.494 732.935C334.121 733.408 332.156 733.929 329.599 734.497C327.089 735.065 324.012 735.397 320.366 735.491C313.926 735.681 308.126 734.71 302.965 732.58C297.804 730.402 293.709 727.04 290.678 722.494C287.695 717.949 286.228 712.267 286.275 705.449V598.773ZM383.061 670.08V734H357.351V588.545H382.493V643.446H383.771C386.328 637.291 390.282 632.437 395.632 628.886C401.03 625.288 407.895 623.489 416.229 623.489C423.804 623.489 430.41 625.075 436.044 628.247C441.679 631.42 446.035 636.06 449.112 642.168C452.237 648.276 453.8 655.733 453.8 664.54V734H428.089V668.517C428.089 661.178 426.196 655.473 422.408 651.401C418.667 647.281 413.411 645.222 406.641 645.222C402.095 645.222 398.023 646.216 394.425 648.205C390.874 650.146 388.08 652.963 386.044 656.656C384.055 660.349 383.061 664.824 383.061 670.08ZM528.303 736.131C517.365 736.131 507.919 733.858 499.964 729.312C492.057 724.72 485.973 718.233 481.712 709.852C477.45 701.424 475.32 691.505 475.32 680.094C475.32 668.872 477.45 659.024 481.712 650.548C486.02 642.026 492.034 635.397 499.751 630.662C507.469 625.88 516.536 623.489 526.953 623.489C533.677 623.489 540.021 624.578 545.987 626.756C552 628.886 557.304 632.201 561.896 636.699C566.536 641.197 570.182 646.926 572.834 653.886C575.485 660.799 576.811 669.038 576.811 678.602V686.486H487.393V669.156H552.166C552.119 664.232 551.054 659.852 548.97 656.017C546.887 652.134 543.975 649.08 540.234 646.855C536.541 644.63 532.232 643.517 527.308 643.517C522.053 643.517 517.436 644.795 513.459 647.352C509.482 649.862 506.38 653.176 504.155 657.295C501.977 661.367 500.864 665.842 500.817 670.719V685.847C500.817 692.191 501.977 697.636 504.297 702.182C506.617 706.68 509.86 710.136 514.027 712.551C518.194 714.919 523.071 716.102 528.658 716.102C532.398 716.102 535.784 715.581 538.814 714.54C541.844 713.451 544.472 711.865 546.697 709.781C548.923 707.698 550.604 705.117 551.74 702.04L575.746 704.739C574.231 711.083 571.342 716.623 567.081 721.358C562.867 726.045 557.469 729.691 550.888 732.295C544.306 734.852 536.778 736.131 528.303 736.131ZM598.562 734V624.909H623.491V643.091H624.627C626.616 636.794 630.025 631.94 634.854 628.531C639.731 625.075 645.295 623.347 651.545 623.347C652.965 623.347 654.551 623.418 656.303 623.56C658.103 623.654 659.594 623.82 660.778 624.057V647.707C659.689 647.329 657.96 646.997 655.593 646.713C653.273 646.382 651.024 646.216 648.846 646.216C644.158 646.216 639.944 647.234 636.204 649.27C632.511 651.259 629.599 654.028 627.468 657.58C625.337 661.131 624.272 665.226 624.272 669.866V734H598.562Z" fill="#757575"/>
</g>
<path d="M1216.9 581.975C1213.97 581.975 1211.43 581.667 1209.29 581.051C1207.17 580.435 1205.55 579.555 1204.4 578.411C1203.26 577.267 1202.69 575.917 1202.69 574.363C1202.69 572.808 1203.26 571.459 1204.4 570.315C1205.55 569.171 1207.17 568.291 1209.29 567.675C1211.43 567.059 1213.97 566.751 1216.9 566.751C1219.83 566.751 1222.35 567.059 1224.47 567.675C1226.61 568.291 1228.25 569.171 1229.39 570.315C1230.54 571.459 1231.11 572.808 1231.11 574.363C1231.11 575.917 1230.54 577.267 1229.39 578.411C1228.25 579.555 1226.61 580.435 1224.47 581.051C1222.35 581.667 1219.83 581.975 1216.9 581.975ZM1216.9 579.291C1220.33 579.291 1223.03 578.851 1224.99 577.971C1226.96 577.091 1227.94 575.888 1227.94 574.363C1227.94 572.837 1226.96 571.635 1224.99 570.755C1223.03 569.875 1220.33 569.435 1216.9 569.435C1213.5 569.435 1210.8 569.875 1208.8 570.755C1206.84 571.635 1205.85 572.837 1205.85 574.363C1205.85 575.888 1206.84 577.091 1208.8 577.971C1210.8 578.851 1213.5 579.291 1216.9 579.291ZM1214.48 559.755V551.659H1217.65V559.755H1234.06V562.439H1199.74V559.755H1214.48ZM1202.99 546.731V544.047H1230.8V556.147H1227.63V546.731H1202.99ZM1237.77 568.511V565.783H1272.09V568.511H1264.08V581.579H1260.91V568.511H1249.03V581.579H1245.86V568.511H1237.77ZM1254.93 560.855C1250.35 560.855 1246.77 560.107 1244.19 558.611C1241.61 557.085 1240.32 555.003 1240.32 552.363C1240.32 549.723 1241.61 547.655 1244.19 546.159C1246.77 544.633 1250.35 543.871 1254.93 543.871C1259.5 543.871 1263.08 544.633 1265.66 546.159C1268.24 547.655 1269.53 549.723 1269.53 552.363C1269.53 555.003 1268.24 557.085 1265.66 558.611C1263.08 560.107 1259.5 560.855 1254.93 560.855ZM1254.93 558.127C1258.48 558.127 1261.26 557.613 1263.29 556.587C1265.34 555.56 1266.37 554.152 1266.37 552.363C1266.37 550.573 1265.34 549.165 1263.29 548.139C1261.26 547.112 1258.48 546.599 1254.93 546.599C1251.38 546.599 1248.58 547.112 1246.52 548.139C1244.5 549.165 1243.49 550.573 1243.49 552.363C1243.49 554.152 1244.5 555.56 1246.52 556.587C1248.58 557.613 1251.38 558.127 1254.93 558.127ZM1286.79 574.759C1284.83 574.759 1283.08 574.348 1281.56 573.527C1280.06 572.676 1278.89 571.488 1278.04 569.963C1277.22 568.437 1276.81 566.663 1276.81 564.639C1276.81 562.615 1277.22 560.84 1278.04 559.315C1278.89 557.789 1280.06 556.616 1281.56 555.795C1283.08 554.944 1284.83 554.519 1286.79 554.519C1288.76 554.519 1290.49 554.944 1291.99 555.795C1293.51 556.616 1294.68 557.789 1295.51 559.315C1296.36 560.84 1296.78 562.615 1296.78 564.639C1296.78 566.663 1296.36 568.437 1295.51 569.963C1294.68 571.488 1293.51 572.676 1291.99 573.527C1290.49 574.348 1288.76 574.759 1286.79 574.759ZM1286.79 572.031C1288.85 572.031 1290.5 571.356 1291.77 570.007C1293.03 568.657 1293.66 566.868 1293.66 564.639C1293.66 562.409 1293.03 560.62 1291.77 559.271C1290.5 557.921 1288.85 557.247 1286.79 557.247C1284.74 557.247 1283.08 557.921 1281.82 559.271C1280.56 560.62 1279.93 562.409 1279.93 564.639C1279.93 566.868 1280.56 568.657 1281.82 570.007C1283.08 571.356 1284.74 572.031 1286.79 572.031ZM1285.21 547.743V541.759H1288.38V547.743H1298.45V550.471H1275.13V547.743H1285.21ZM1306.42 542.243V557.291H1311.35V560.019H1306.42V581.579H1303.25V542.243H1306.42ZM1328.08 573.263V556.983H1331.24V573.263H1348.14V575.991H1313.82V573.263H1328.08ZM1317.08 544.927H1344.88V565.871H1341.72V547.655H1317.08V544.927Z" fill="#757575"/>
<g filter="url(#filter2_d_869_3)">
<path d="M880.653 387.518C879.99 381.315 877.196 376.485 872.272 373.029C867.395 369.572 861.05 367.844 853.238 367.844C847.746 367.844 843.034 368.673 839.104 370.33C835.174 371.987 832.168 374.236 830.085 377.077C828.001 379.918 826.936 383.162 826.888 386.807C826.888 389.838 827.575 392.465 828.948 394.691C830.369 396.916 832.286 398.81 834.701 400.373C837.116 401.888 839.791 403.166 842.727 404.208C845.662 405.25 848.621 406.126 851.604 406.836L865.241 410.245C870.733 411.523 876.013 413.251 881.079 415.43C886.192 417.608 890.762 420.354 894.786 423.668C898.858 426.983 902.078 430.983 904.445 435.671C906.813 440.358 907.996 445.851 907.996 452.148C907.996 460.671 905.818 468.176 901.462 474.662C897.106 481.102 890.809 486.144 882.57 489.79C874.379 493.389 864.46 495.188 852.812 495.188C841.496 495.188 831.671 493.436 823.337 489.932C815.051 486.429 808.565 481.315 803.877 474.591C799.237 467.868 796.728 459.677 796.349 450.018H822.272C822.651 455.084 824.213 459.298 826.96 462.66C829.706 466.021 833.281 468.531 837.684 470.188C842.135 471.845 847.106 472.674 852.599 472.674C858.328 472.674 863.347 471.822 867.656 470.117C872.012 468.365 875.421 465.95 877.883 462.873C880.345 459.748 881.6 456.102 881.647 451.935C881.6 448.147 880.487 445.022 878.309 442.56C876.131 440.051 873.077 437.967 869.147 436.31C865.264 434.606 860.719 433.09 855.511 431.765L838.962 427.503C826.983 424.426 817.513 419.762 810.553 413.512C803.64 407.215 800.184 398.858 800.184 388.441C800.184 379.871 802.504 372.366 807.144 365.927C811.832 359.487 818.2 354.492 826.249 350.941C834.299 347.342 843.413 345.543 853.593 345.543C863.915 345.543 872.959 347.342 880.724 350.941C888.536 354.492 894.668 359.44 899.119 365.785C903.569 372.082 905.866 379.326 906.008 387.518H880.653Z" fill="#59F9CD"/>
<path d="M956.061 429.066V492.986H930.351V347.532H955.493V402.432H956.771C959.328 396.277 963.282 391.424 968.632 387.873C974.03 384.274 980.895 382.475 989.229 382.475C996.804 382.475 1003.41 384.061 1009.04 387.233C1014.68 390.406 1019.03 395.046 1022.11 401.154C1025.24 407.262 1026.8 414.719 1026.8 423.526V492.986H1001.09V427.503C1001.09 420.164 999.196 414.459 995.408 410.387C991.667 406.268 986.411 404.208 979.641 404.208C975.095 404.208 971.023 405.202 967.425 407.191C963.874 409.132 961.08 411.949 959.044 415.643C957.055 419.336 956.061 423.81 956.061 429.066ZM1084.4 495.188C1077.49 495.188 1071.26 493.957 1065.72 491.495C1060.23 488.985 1055.87 485.292 1052.65 480.415C1049.48 475.538 1047.89 469.525 1047.89 462.376C1047.89 456.22 1049.03 451.13 1051.3 447.106C1053.58 443.081 1056.68 439.861 1060.61 437.447C1064.54 435.032 1068.96 433.209 1073.89 431.978C1078.86 430.699 1084 429.776 1089.3 429.208C1095.69 428.545 1100.88 427.953 1104.85 427.432C1108.83 426.864 1111.72 426.012 1113.52 424.876C1115.37 423.692 1116.29 421.869 1116.29 419.407V418.981C1116.29 413.63 1114.7 409.487 1111.53 406.552C1108.36 403.616 1103.79 402.148 1097.82 402.148C1091.53 402.148 1086.53 403.521 1082.84 406.268C1079.19 409.014 1076.73 412.257 1075.45 415.998L1051.44 412.589C1053.34 405.96 1056.46 400.42 1060.82 395.969C1065.18 391.471 1070.5 388.109 1076.8 385.884C1083.1 383.611 1090.06 382.475 1097.68 382.475C1102.94 382.475 1108.17 383.09 1113.38 384.322C1118.58 385.553 1123.34 387.589 1127.65 390.43C1131.96 393.223 1135.42 397.035 1138.02 401.864C1140.67 406.694 1142 412.731 1142 419.975V492.986H1117.28V478.001H1116.43C1114.87 481.031 1112.67 483.872 1109.83 486.523C1107.03 489.127 1103.5 491.234 1099.24 492.844C1095.03 494.407 1090.08 495.188 1084.4 495.188ZM1091.08 476.296C1096.24 476.296 1100.71 475.278 1104.5 473.242C1108.29 471.159 1111.2 468.412 1113.23 465.003C1115.32 461.594 1116.36 457.877 1116.36 453.853V440.998C1115.55 441.661 1114.18 442.276 1112.24 442.844C1110.35 443.412 1108.22 443.91 1105.85 444.336C1103.48 444.762 1101.14 445.141 1098.82 445.472C1096.5 445.804 1094.48 446.088 1092.78 446.324C1088.94 446.845 1085.51 447.698 1082.48 448.881C1079.45 450.065 1077.06 451.722 1075.31 453.853C1073.56 455.936 1072.68 458.635 1072.68 461.949C1072.68 466.684 1074.41 470.259 1077.87 472.674C1081.32 475.089 1085.72 476.296 1091.08 476.296ZM1167.85 492.986V383.895H1192.78V402.077H1193.92C1195.9 395.78 1199.31 390.927 1204.14 387.518C1209.02 384.061 1214.58 382.333 1220.83 382.333C1222.25 382.333 1223.84 382.404 1225.59 382.546C1227.39 382.641 1228.88 382.806 1230.07 383.043V406.694C1228.98 406.315 1227.25 405.983 1224.88 405.699C1222.56 405.368 1220.31 405.202 1218.13 405.202C1213.45 405.202 1209.23 406.22 1205.49 408.256C1201.8 410.245 1198.89 413.015 1196.76 416.566C1194.63 420.117 1193.56 424.213 1193.56 428.853V492.986H1167.85ZM1290.95 495.117C1280.01 495.117 1270.57 492.844 1262.61 488.299C1254.71 483.706 1248.62 477.219 1244.36 468.839C1240.1 460.411 1237.97 450.491 1237.97 439.08C1237.97 427.858 1240.1 418.01 1244.36 409.535C1248.67 401.012 1254.68 394.383 1262.4 389.648C1270.12 384.866 1279.18 382.475 1289.6 382.475C1296.33 382.475 1302.67 383.564 1308.64 385.742C1314.65 387.873 1319.95 391.187 1324.54 395.685C1329.18 400.183 1332.83 405.912 1335.48 412.873C1338.13 419.786 1339.46 428.024 1339.46 437.589V445.472H1250.04V428.143H1314.81C1314.77 423.218 1313.7 418.839 1311.62 415.003C1309.54 411.121 1306.62 408.067 1302.88 405.841C1299.19 403.616 1294.88 402.503 1289.96 402.503C1284.7 402.503 1280.08 403.782 1276.11 406.339C1272.13 408.848 1269.03 412.162 1266.8 416.282C1264.63 420.354 1263.51 424.828 1263.47 429.705V444.833C1263.47 451.178 1264.63 456.623 1266.95 461.168C1269.27 465.666 1272.51 469.123 1276.68 471.537C1280.84 473.905 1285.72 475.089 1291.31 475.089C1295.05 475.089 1298.43 474.568 1301.46 473.526C1304.49 472.437 1307.12 470.851 1309.35 468.768C1311.57 466.684 1313.25 464.104 1314.39 461.026L1338.39 463.725C1336.88 470.07 1333.99 475.609 1329.73 480.344C1325.52 485.032 1320.12 488.678 1313.54 491.282C1306.95 493.839 1299.43 495.117 1290.95 495.117Z" fill="#757575"/>
</g>
<defs>
<filter id="filter0_d_869_3" x="4.34662" y="40.542" width="521.136" height="167.656" filterUnits="userSpaceOnUse" color-interpolation-filters="sRGB">
<feFlood flood-opacity="0" result="BackgroundImageFix"/>
<feColorMatrix in="SourceAlpha" type="matrix" values="0 0 0 0 0 0 0 0 0 0 0 0 0 0 0 0 0 0 127 0" result="hardAlpha"/>
<feOffset dy="2"/>
<feGaussianBlur stdDeviation="5"/>
<feComposite in2="hardAlpha" operator="out"/>
<feColorMatrix type="matrix" values="0 0 0 0 0 0 0 0 0 0 0 0 0 0 0 0 0 0 0.08 0"/>
<feBlend mode="normal" in2="BackgroundImageFix" result="effect1_dropShadow_869_3"/>
<feBlend mode="normal" in="SourceGraphic" in2="effect1_dropShadow_869_3" result="shape"/>
</filter>
<filter id="filter1_d_869_3" x="0.653381" y="578.557" width="670.124" height="169.646" filterUnits="userSpaceOnUse" color-interpolation-filters="sRGB">
<feFlood flood-opacity="0" result="BackgroundImageFix"/>
<feColorMatrix in="SourceAlpha" type="matrix" values="0 0 0 0 0 0 0 0 0 0 0 0 0 0 0 0 0 0 127 0" result="hardAlpha"/>
<feOffset dy="2"/>
<feGaussianBlur stdDeviation="5"/>
<feComposite in2="hardAlpha" operator="out"/>
<feColorMatrix type="matrix" values="0 0 0 0 0 0 0 0 0 0 0 0 0 0 0 0 0 0 0.08 0"/>
<feBlend mode="normal" in2="BackgroundImageFix" result="effect1_dropShadow_869_3"/>
<feBlend mode="normal" in="SourceGraphic" in2="effect1_dropShadow_869_3" result="shape"/>
</filter>
<filter id="filter2_d_869_3" x="786.349" y="337.543" width="563.111" height="169.646" filterUnits="userSpaceOnUse" color-interpolation-filters="sRGB">
<feFlood flood-opacity="0" result="BackgroundImageFix"/>
<feColorMatrix in="SourceAlpha" type="matrix" values="0 0 0 0 0 0 0 0 0 0 0 0 0 0 0 0 0 0 127 0" result="hardAlpha"/>
<feOffset dy="2"/>
<feGaussianBlur stdDeviation="5"/>
<feComposite in2="hardAlpha" operator="out"/>
<feColorMatrix type="matrix" values="0 0 0 0 0 0 0 0 0 0 0 0 0 0 0 0 0 0 0.08 0"/>
<feBlend mode="normal" in2="BackgroundImageFix" result="effect1_dropShadow_869_3"/>
<feBlend mode="normal" in="SourceGraphic" in2="effect1_dropShadow_869_3" result="shape"/>
</filter>
</defs>
</svg>
