<svg width="995" height="1079" viewBox="0 0 995 1079" fill="none" xmlns="http://www.w3.org/2000/svg">
<path d="M826.615 1025.42C830.353 1047.2 815.733 1067.88 793.96 1071.61C772.187 1075.35 751.506 1060.73 747.768 1038.96C744.03 1017.19 758.65 996.506 780.423 992.768C802.196 989.03 822.877 1003.65 826.615 1025.42Z" fill="#62FBB5" fill-opacity="0.2"/>
<path fill-rule="evenodd" clip-rule="evenodd" d="M736.636 42.2747C786.186 80.4082 792.811 149.896 751.433 197.48L617.161 351.891C557.59 420.398 455.922 440.583 374.334 400.104L306.12 366.26L394.872 556.411C420.717 611.785 393.714 677.376 334.559 702.912C275.403 728.449 206.496 704.26 180.651 648.885L46.3186 361.077C-28.0073 201.833 155.161 39.8672 318.132 120.725L458.219 190.228L571.995 59.3868C613.373 11.8026 687.085 4.14125 736.636 42.2747Z" fill="url(#paint0_linear_335_639)" fill-opacity="0.6"/>
<path opacity="0.8" d="M970.652 510.981C983.735 587.186 932.564 659.568 856.359 672.652C780.154 685.735 707.772 634.564 694.689 558.359C681.606 482.154 732.776 409.772 808.981 396.689C885.186 383.606 957.568 434.776 970.652 510.981Z" fill="#59F9CD" fill-opacity="0.8"/>
<path d="M909.626 821.845C917.102 865.39 887.862 906.752 844.316 914.228C800.77 921.704 759.409 892.463 751.933 848.918C744.457 805.372 773.697 764.011 817.243 756.535C860.789 749.059 902.15 778.299 909.626 821.845Z" fill="#5DFAC3" fill-opacity="0.3"/>
<defs>
<linearGradient id="paint0_linear_335_639" x1="379.229" y1="65.1079" x2="484.907" y2="680.65" gradientUnits="userSpaceOnUse">
<stop stop-color="#38F9D7"/>
<stop offset="1" stop-color="#56FF85"/>
</linearGradient>
</defs>
</svg>
