<svg width="2826" height="7129" viewBox="0 0 2826 7129" fill="none" xmlns="http://www.w3.org/2000/svg">
<circle cx="1306.5" cy="806.5" r="528.3" stroke="#59F9CD" stroke-width="0.4"/>
<circle cx="528.5" cy="528.5" r="528.3" transform="matrix(-1 0 0 1 2355 2449)" stroke="#59F9CD" stroke-width="0.4"/>
<circle cx="2005.5" cy="1755.5" r="528.3" stroke="#1BF48B" stroke-width="0.4"/>
<circle cx="528.5" cy="528.5" r="528.3" transform="matrix(-1 0 0 1 1656 3541)" stroke="#1BF48B" stroke-width="0.4"/>
<circle cx="1306.5" cy="820.5" r="820.3" stroke="#59F9CD" stroke-width="0.4"/>
<circle cx="820.5" cy="820.5" r="820.3" transform="matrix(-1 0 0 1 2647 2157)" stroke="#59F9CD" stroke-width="0.4"/>
<circle cx="2005.5" cy="1755.5" r="820.3" stroke="#1BF48B" stroke-width="0.4"/>
<circle cx="820.5" cy="820.5" r="820.3" transform="matrix(-1 0 0 1 1948 3249)" stroke="#1BF48B" stroke-width="0.4"/>
<circle cx="1641.5" cy="5137.5" r="528.3" stroke="#59F9CD" stroke-width="0.4"/>
<circle cx="820.5" cy="6308.5" r="528.3" stroke="#1BF48B" stroke-width="0.4"/>
<circle cx="1641.5" cy="5151.5" r="820.3" stroke="#59F9CD" stroke-width="0.4"/>
<circle cx="820.5" cy="6308.5" r="820.3" stroke="#1BF48B" stroke-width="0.4"/>
</svg>
