<svg width="670" height="264" viewBox="0 0 670 264" fill="none" xmlns="http://www.w3.org/2000/svg">
<path d="M3.47656 58.918C3.48958 58.0716 3.57747 57.388 3.74023 56.8672C3.90299 56.3464 4.13411 55.9264 4.43359 55.6074C4.73307 55.2884 5.13672 54.9792 5.64453 54.6797C6.07422 54.4193 6.41927 54.0872 6.67969 53.6836C6.9401 53.2799 7.07031 52.8242 7.07031 52.3164C7.07031 51.8867 6.9694 51.5059 6.76758 51.1738C6.56576 50.8418 6.28581 50.5879 5.92773 50.4121C5.56966 50.2363 5.17578 50.1484 4.74609 50.1484C4.35547 50.1484 3.99089 50.2266 3.65234 50.3828C3.3138 50.5391 3.0306 50.7897 2.80273 51.1348C2.57487 51.4798 2.44141 51.9062 2.40234 52.4141H0.625C0.664062 51.6458 0.869141 50.9785 1.24023 50.4121C1.61133 49.8457 2.10286 49.4128 2.71484 49.1133C3.32682 48.8138 4.00391 48.6641 4.74609 48.6641C5.55339 48.6641 6.26302 48.8236 6.875 49.1426C7.48698 49.4616 7.95898 49.9043 8.29102 50.4707C8.62305 51.0371 8.78906 51.6784 8.78906 52.3945C8.78906 53.1367 8.62305 53.7812 8.29102 54.3281C7.95898 54.875 7.48047 55.3438 6.85547 55.7344C6.4388 55.9818 6.11328 56.2422 5.87891 56.5156C5.64453 56.7891 5.46875 57.1146 5.35156 57.4922C5.23438 57.8698 5.16927 58.3451 5.15625 58.918V59.0156H3.47656V58.918ZM4.375 63.1172C4.15365 63.1172 3.94531 63.0586 3.75 62.9414C3.55469 62.8242 3.40169 62.668 3.29102 62.4727C3.18034 62.2773 3.125 62.069 3.125 61.8477C3.125 61.6263 3.18034 61.418 3.29102 61.2227C3.40169 61.0273 3.55469 60.8743 3.75 60.7637C3.94531 60.653 4.15365 60.5977 4.375 60.5977C4.59635 60.5977 4.80469 60.653 5 60.7637C5.19531 60.8743 5.34831 61.0273 5.45898 61.2227C5.56966 61.418 5.625 61.6263 5.625 61.8477C5.625 62.069 5.56966 62.2773 5.45898 62.4727C5.34831 62.668 5.19531 62.8242 5 62.9414C4.80469 63.0586 4.59635 63.1172 4.375 63.1172ZM13.0664 58.918C13.0794 58.0716 13.1673 57.388 13.3301 56.8672C13.4928 56.3464 13.724 55.9264 14.0234 55.6074C14.3229 55.2884 14.7266 54.9792 15.2344 54.6797C15.6641 54.4193 16.0091 54.0872 16.2695 53.6836C16.5299 53.2799 16.6602 52.8242 16.6602 52.3164C16.6602 51.8867 16.5592 51.5059 16.3574 51.1738C16.1556 50.8418 15.8757 50.5879 15.5176 50.4121C15.1595 50.2363 14.7656 50.1484 14.3359 50.1484C13.9453 50.1484 13.5807 50.2266 13.2422 50.3828C12.9036 50.5391 12.6204 50.7897 12.3926 51.1348C12.1647 51.4798 12.0312 51.9062 11.9922 52.4141H10.2148C10.2539 51.6458 10.459 50.9785 10.8301 50.4121C11.2012 49.8457 11.6927 49.4128 12.3047 49.1133C12.9167 48.8138 13.5938 48.6641 14.3359 48.6641C15.1432 48.6641 15.8529 48.8236 16.4648 49.1426C17.0768 49.4616 17.5488 49.9043 17.8809 50.4707C18.2129 51.0371 18.3789 51.6784 18.3789 52.3945C18.3789 53.1367 18.2129 53.7812 17.8809 54.3281C17.5488 54.875 17.0703 55.3438 16.4453 55.7344C16.0286 55.9818 15.7031 56.2422 15.4688 56.5156C15.2344 56.7891 15.0586 57.1146 14.9414 57.4922C14.8242 57.8698 14.7591 58.3451 14.7461 58.918V59.0156H13.0664V58.918ZM13.9648 63.1172C13.7435 63.1172 13.5352 63.0586 13.3398 62.9414C13.1445 62.8242 12.9915 62.668 12.8809 62.4727C12.7702 62.2773 12.7148 62.069 12.7148 61.8477C12.7148 61.6263 12.7702 61.418 12.8809 61.2227C12.9915 61.0273 13.1445 60.8743 13.3398 60.7637C13.5352 60.653 13.7435 60.5977 13.9648 60.5977C14.1862 60.5977 14.3945 60.653 14.5898 60.7637C14.7852 60.8743 14.9382 61.0273 15.0488 61.2227C15.1595 61.418 15.2148 61.6263 15.2148 61.8477C15.2148 62.069 15.1595 62.2773 15.0488 62.4727C14.9382 62.668 14.7852 62.8242 14.5898 62.9414C14.3945 63.0586 14.1862 63.1172 13.9648 63.1172ZM22.6562 58.918C22.6693 58.0716 22.7572 57.388 22.9199 56.8672C23.0827 56.3464 23.3138 55.9264 23.6133 55.6074C23.9128 55.2884 24.3164 54.9792 24.8242 54.6797C25.2539 54.4193 25.599 54.0872 25.8594 53.6836C26.1198 53.2799 26.25 52.8242 26.25 52.3164C26.25 51.8867 26.1491 51.5059 25.9473 51.1738C25.7454 50.8418 25.4655 50.5879 25.1074 50.4121C24.7493 50.2363 24.3555 50.1484 23.9258 50.1484C23.5352 50.1484 23.1706 50.2266 22.832 50.3828C22.4935 50.5391 22.2103 50.7897 21.9824 51.1348C21.7546 51.4798 21.6211 51.9062 21.582 52.4141H19.8047C19.8438 51.6458 20.0488 50.9785 20.4199 50.4121C20.791 49.8457 21.2826 49.4128 21.8945 49.1133C22.5065 48.8138 23.1836 48.6641 23.9258 48.6641C24.7331 48.6641 25.4427 48.8236 26.0547 49.1426C26.6667 49.4616 27.1387 49.9043 27.4707 50.4707C27.8027 51.0371 27.9688 51.6784 27.9688 52.3945C27.9688 53.1367 27.8027 53.7812 27.4707 54.3281C27.1387 54.875 26.6602 55.3438 26.0352 55.7344C25.6185 55.9818 25.293 56.2422 25.0586 56.5156C24.8242 56.7891 24.6484 57.1146 24.5312 57.4922C24.4141 57.8698 24.349 58.3451 24.3359 58.918V59.0156H22.6562V58.918ZM23.5547 63.1172C23.3333 63.1172 23.125 63.0586 22.9297 62.9414C22.7344 62.8242 22.5814 62.668 22.4707 62.4727C22.36 62.2773 22.3047 62.069 22.3047 61.8477C22.3047 61.6263 22.36 61.418 22.4707 61.2227C22.5814 61.0273 22.7344 60.8743 22.9297 60.7637C23.125 60.653 23.3333 60.5977 23.5547 60.5977C23.776 60.5977 23.9844 60.653 24.1797 60.7637C24.375 60.8743 24.528 61.0273 24.6387 61.2227C24.7493 61.418 24.8047 61.6263 24.8047 61.8477C24.8047 62.069 24.7493 62.2773 24.6387 62.4727C24.528 62.668 24.375 62.8242 24.1797 62.9414C23.9844 63.0586 23.776 63.1172 23.5547 63.1172ZM5.73438 95.0625C5.74479 93.7708 5.86458 92.7292 6.09375 91.9375C6.33333 91.1458 6.66667 90.5104 7.09375 90.0312C7.52083 89.5417 8.10417 89.0781 8.84375 88.6406C9.59375 88.1719 10.1719 87.6562 10.5781 87.0938C10.9844 86.5312 11.1875 85.8958 11.1875 85.1875C11.1875 84.6146 11.0573 84.1146 10.7969 83.6875C10.5365 83.25 10.1667 82.9167 9.6875 82.6875C9.21875 82.4479 8.70312 82.3281 8.14062 82.3281C7.59896 82.3281 7.09375 82.4427 6.625 82.6719C6.15625 82.8906 5.77083 83.2344 5.46875 83.7031C5.16667 84.1719 5 84.7396 4.96875 85.4062H1.0625C1.10417 84.0521 1.44271 82.901 2.07812 81.9531C2.71354 80.9948 3.55729 80.276 4.60938 79.7969C5.66146 79.3073 6.83854 79.0625 8.14062 79.0625C9.55729 79.0625 10.8021 79.3125 11.875 79.8125C12.9583 80.3021 13.7969 81.0052 14.3906 81.9219C14.9844 82.8281 15.2812 83.8958 15.2812 85.125C15.2812 86.3438 14.9948 87.3906 14.4219 88.2656C13.8594 89.1302 13.0469 89.8906 11.9844 90.5469C11.3594 90.9115 10.8646 91.2917 10.5 91.6875C10.1354 92.0833 9.85938 92.5469 9.67188 93.0781C9.48438 93.6094 9.38542 94.2708 9.375 95.0625V95.3594H5.73438V95.0625ZM7.65625 102.25C7.21875 102.25 6.8125 102.141 6.4375 101.922C6.0625 101.693 5.76562 101.396 5.54688 101.031C5.33854 100.656 5.23438 100.25 5.23438 99.8125C5.23438 99.3854 5.33854 98.9896 5.54688 98.625C5.76562 98.25 6.0625 97.9583 6.4375 97.75C6.8125 97.5312 7.21875 97.4219 7.65625 97.4219C8.07292 97.4219 8.46875 97.5312 8.84375 97.75C9.21875 97.9583 9.51562 98.25 9.73438 98.625C9.95312 98.9896 10.0625 99.3854 10.0625 99.8125C10.0625 100.25 9.95312 100.656 9.73438 101.031C9.51562 101.396 9.21875 101.693 8.84375 101.922C8.46875 102.141 8.07292 102.25 7.65625 102.25ZM22.3281 95.0625C22.3385 93.7708 22.4583 92.7292 22.6875 91.9375C22.9271 91.1458 23.2604 90.5104 23.6875 90.0312C24.1146 89.5417 24.6979 89.0781 25.4375 88.6406C26.1875 88.1719 26.7656 87.6562 27.1719 87.0938C27.5781 86.5312 27.7812 85.8958 27.7812 85.1875C27.7812 84.6146 27.651 84.1146 27.3906 83.6875C27.1302 83.25 26.7604 82.9167 26.2812 82.6875C25.8125 82.4479 25.2969 82.3281 24.7344 82.3281C24.1927 82.3281 23.6875 82.4427 23.2188 82.6719C22.75 82.8906 22.3646 83.2344 22.0625 83.7031C21.7604 84.1719 21.5938 84.7396 21.5625 85.4062H17.6562C17.6979 84.0521 18.0365 82.901 18.6719 81.9531C19.3073 80.9948 20.151 80.276 21.2031 79.7969C22.2552 79.3073 23.4323 79.0625 24.7344 79.0625C26.151 79.0625 27.3958 79.3125 28.4688 79.8125C29.5521 80.3021 30.3906 81.0052 30.9844 81.9219C31.5781 82.8281 31.875 83.8958 31.875 85.125C31.875 86.3438 31.5885 87.3906 31.0156 88.2656C30.4531 89.1302 29.6406 89.8906 28.5781 90.5469C27.9531 90.9115 27.4583 91.2917 27.0938 91.6875C26.7292 92.0833 26.4531 92.5469 26.2656 93.0781C26.0781 93.6094 25.9792 94.2708 25.9688 95.0625V95.3594H22.3281V95.0625ZM24.25 102.25C23.8125 102.25 23.4062 102.141 23.0312 101.922C22.6562 101.693 22.3594 101.396 22.1406 101.031C21.9323 100.656 21.8281 100.25 21.8281 99.8125C21.8281 99.3854 21.9323 98.9896 22.1406 98.625C22.3594 98.25 22.6562 97.9583 23.0312 97.75C23.4062 97.5312 23.8125 97.4219 24.25 97.4219C24.6667 97.4219 25.0625 97.5312 25.4375 97.75C25.8125 97.9583 26.1094 98.25 26.3281 98.625C26.5469 98.9896 26.6562 99.3854 26.6562 99.8125C26.6562 100.25 26.5469 100.656 26.3281 101.031C26.1094 101.396 25.8125 101.693 25.4375 101.922C25.0625 102.141 24.6667 102.25 24.25 102.25ZM38.9219 95.0625C38.9323 93.7708 39.0521 92.7292 39.2812 91.9375C39.5208 91.1458 39.8542 90.5104 40.2812 90.0312C40.7083 89.5417 41.2917 89.0781 42.0312 88.6406C42.7812 88.1719 43.3594 87.6562 43.7656 87.0938C44.1719 86.5312 44.375 85.8958 44.375 85.1875C44.375 84.6146 44.2448 84.1146 43.9844 83.6875C43.724 83.25 43.3542 82.9167 42.875 82.6875C42.4062 82.4479 41.8906 82.3281 41.3281 82.3281C40.7865 82.3281 40.2812 82.4427 39.8125 82.6719C39.3438 82.8906 38.9583 83.2344 38.6562 83.7031C38.3542 84.1719 38.1875 84.7396 38.1562 85.4062H34.25C34.2917 84.0521 34.6302 82.901 35.2656 81.9531C35.901 80.9948 36.7448 80.276 37.7969 79.7969C38.849 79.3073 40.026 79.0625 41.3281 79.0625C42.7448 79.0625 43.9896 79.3125 45.0625 79.8125C46.1458 80.3021 46.9844 81.0052 47.5781 81.9219C48.1719 82.8281 48.4688 83.8958 48.4688 85.125C48.4688 86.3438 48.1823 87.3906 47.6094 88.2656C47.0469 89.1302 46.2344 89.8906 45.1719 90.5469C44.5469 90.9115 44.0521 91.2917 43.6875 91.6875C43.3229 92.0833 43.0469 92.5469 42.8594 93.0781C42.6719 93.6094 42.5729 94.2708 42.5625 95.0625V95.3594H38.9219V95.0625ZM40.8438 102.25C40.4062 102.25 40 102.141 39.625 101.922C39.25 101.693 38.9531 101.396 38.7344 101.031C38.526 100.656 38.4219 100.25 38.4219 99.8125C38.4219 99.3854 38.526 98.9896 38.7344 98.625C38.9531 98.25 39.25 97.9583 39.625 97.75C40 97.5312 40.4062 97.4219 40.8438 97.4219C41.2604 97.4219 41.6562 97.5312 42.0312 97.75C42.4062 97.9583 42.7031 98.25 42.9219 98.625C43.1406 98.9896 43.25 99.3854 43.25 99.8125C43.25 100.25 43.1406 100.656 42.9219 101.031C42.7031 101.396 42.4062 101.693 42.0312 101.922C41.6562 102.141 41.2604 102.25 40.8438 102.25Z" fill="#757575"/>
<mask id="mask0_6_193" style="mask-type:alpha" maskUnits="userSpaceOnUse" x="0" y="134" width="130" height="130">
<rect width="130" height="130" rx="20" transform="matrix(-1 0 0 1 130 134)" fill="#D9D9D9"/>
</mask>
<g mask="url(#mask0_6_193)">
<rect y="134" width="130" height="130" fill="#D9D9D9"/>
</g>
<path fill-rule="evenodd" clip-rule="evenodd" d="M623.482 0C632.605 0 640 7.39549 640 16.5183V247.482C640 256.605 632.604 264 623.482 264H185.863C176.74 264 169.344 256.605 169.344 247.482V218.331C169.164 218.268 168.987 218.175 168.819 218.051L145.162 200.595C144.088 199.803 144.088 198.197 145.162 197.405L168.819 179.949C168.987 179.825 169.164 179.732 169.344 179.669V16.5183C169.344 7.39549 176.74 0 185.863 0H623.482Z" fill="#E0E0E0"/>
<path fill-rule="evenodd" clip-rule="evenodd" d="M623.482 0C632.605 0 640 7.39549 640 16.5183V247.482C640 256.605 632.604 264 623.482 264H185.863C176.74 264 169.344 256.605 169.344 247.482V218.331C169.164 218.268 168.987 218.175 168.819 218.051L145.162 200.595C144.088 199.803 144.088 198.197 145.162 197.405L168.819 179.949C168.987 179.825 169.164 179.732 169.344 179.669V16.5183C169.344 7.39549 176.74 0 185.863 0H623.482Z" fill="#D9D9D9"/>
<g filter="url(#filter0_d_6_193)">
<path d="M583.989 67.6897V66.6897H582.989H561V25H602.678V71.977C602.678 83.3127 595.966 93.7038 585.488 97.9348L585.487 97.9351C581.837 99.4121 578.319 100.223 575.71 100.665C574.407 100.885 573.335 101.013 572.592 101.085C572.559 101.088 572.526 101.091 572.494 101.094V86.9736C577.822 86.2982 580.724 84.5986 582.292 82.8738C583.115 81.9685 583.542 81.0861 583.761 80.4069C583.87 80.0687 583.927 79.7832 583.956 79.5726C583.971 79.4672 583.979 79.3804 583.984 79.3148C583.986 79.282 583.987 79.2545 583.988 79.2326L583.988 79.2039L583.988 79.1928L583.988 79.1881L583.989 79.1859C583.989 79.1849 583.989 79.1839 582.989 79.1839H583.989V67.6897Z" fill="#59F9CD" stroke="white" stroke-width="2"/>
<path d="M640.31 67.6897V66.6897H639.31H617.322V25H659V71.977C659 83.3127 652.287 93.7038 641.809 97.9348L641.809 97.9351C638.158 99.4121 634.64 100.223 632.031 100.665C630.729 100.885 629.657 101.013 628.914 101.085C628.88 101.088 628.848 101.091 628.816 101.094V86.9736C634.144 86.2982 637.046 84.5986 638.613 82.8738C639.437 81.9685 639.863 81.0861 640.082 80.4069C640.191 80.0687 640.248 79.7832 640.278 79.5726C640.293 79.4672 640.301 79.3804 640.305 79.3148C640.307 79.282 640.309 79.2545 640.309 79.2326L640.31 79.2039L640.31 79.1928L640.31 79.1881L640.31 79.1859C640.31 79.1849 640.31 79.1839 639.31 79.1839H640.31V67.6897Z" fill="#59F9CD" stroke="white" stroke-width="2"/>
</g>
<path d="M33.75 236.5C33.75 236.5 27.5 236.5 27.5 230.25C27.5 224 33.75 205.25 65 205.25C96.25 205.25 102.5 224 102.5 230.25C102.5 236.5 96.25 236.5 96.25 236.5H33.75ZM65 199C69.9728 199 74.7419 197.025 78.2583 193.508C81.7746 189.992 83.75 185.223 83.75 180.25C83.75 175.277 81.7746 170.508 78.2583 166.992C74.7419 163.475 69.9728 161.5 65 161.5C60.0272 161.5 55.2581 163.475 51.7417 166.992C48.2254 170.508 46.25 175.277 46.25 180.25C46.25 185.223 48.2254 189.992 51.7417 193.508C55.2581 197.025 60.0272 199 65 199Z" fill="#9E9E9E"/>
<defs>
<filter id="filter0_d_6_193" x="550" y="16" width="120" height="98.1724" filterUnits="userSpaceOnUse" color-interpolation-filters="sRGB">
<feFlood flood-opacity="0" result="BackgroundImageFix"/>
<feColorMatrix in="SourceAlpha" type="matrix" values="0 0 0 0 0 0 0 0 0 0 0 0 0 0 0 0 0 0 127 0" result="hardAlpha"/>
<feOffset dy="2"/>
<feGaussianBlur stdDeviation="5"/>
<feComposite in2="hardAlpha" operator="out"/>
<feColorMatrix type="matrix" values="0 0 0 0 0 0 0 0 0 0 0 0 0 0 0 0 0 0 0.08 0"/>
<feBlend mode="normal" in2="BackgroundImageFix" result="effect1_dropShadow_6_193"/>
<feBlend mode="normal" in="SourceGraphic" in2="effect1_dropShadow_6_193" result="shape"/>
</filter>
</defs>
</svg>
