<svg width="30" height="31" viewBox="0 0 30 31" fill="none" xmlns="http://www.w3.org/2000/svg">
<path d="M8.78763 0.384203C7.19163 0.459503 6.10172 0.714203 5.14892 1.0886C4.16282 1.4729 3.32702 1.9886 2.49542 2.8232C1.66382 3.6578 1.15172 4.4942 0.770124 5.4818C0.400824 6.4367 0.150624 7.5275 0.0801243 9.1244C0.00962433 10.7213 -0.00597568 11.2346 0.00182432 15.308C0.00962432 19.3814 0.0276243 19.892 0.105024 21.4922C0.181224 23.0879 0.435024 24.1775 0.809424 25.1306C1.19432 26.1167 1.70942 26.9522 2.54432 27.7841C3.37922 28.616 4.21502 29.1269 5.20502 29.5091C6.15902 29.8778 7.25012 30.1292 8.84672 30.1991C10.4433 30.269 10.9572 30.2852 15.0294 30.2774C19.1016 30.2696 19.6143 30.2516 21.2142 30.1757C22.8141 30.0998 23.898 29.8442 24.8514 29.4716C25.8375 29.0858 26.6736 28.5716 27.5049 27.7364C28.3362 26.9012 28.848 26.0642 29.2293 25.076C29.5989 24.122 29.85 23.0309 29.9193 21.4355C29.9892 19.8344 30.0057 19.3232 29.9979 15.2504C29.9901 11.1776 29.9718 10.667 29.8959 9.0674C29.82 7.4678 29.5659 6.3815 29.1918 5.4278C28.8063 4.4417 28.2918 3.6068 27.4572 2.7743C26.6226 1.9418 25.785 1.4303 24.7971 1.0499C23.8425 0.680603 22.752 0.428903 21.1554 0.359903C19.5588 0.290903 19.0449 0.273203 14.9712 0.281003C10.8975 0.288803 10.3875 0.306203 8.78763 0.384203ZM8.96282 27.5006C7.50032 27.437 6.70622 27.194 6.17702 26.9906C5.47622 26.7206 4.97702 26.3942 4.44962 25.8719C3.92222 25.3496 3.59822 24.8486 3.32462 24.1493C3.11912 23.6201 2.87162 22.8269 2.80322 21.3644C2.72882 19.7837 2.71322 19.3091 2.70452 15.3044C2.69582 11.2997 2.71112 10.8257 2.78042 9.2444C2.84282 7.7831 3.08732 6.9881 3.29042 6.4592C3.56042 5.7575 3.88562 5.2592 4.40912 4.7321C4.93262 4.205 5.43212 3.8804 6.13202 3.6068C6.66062 3.4004 7.45382 3.155 8.91572 3.0854C10.4976 3.0104 10.9716 2.9954 14.9757 2.9867C18.9798 2.978 19.455 2.993 21.0375 3.0626C22.4988 3.1262 23.2941 3.3683 23.8224 3.5726C24.5235 3.8426 25.0224 4.1669 25.5495 4.6913C26.0766 5.2157 26.4015 5.7134 26.6751 6.4148C26.8818 6.9419 27.1272 7.7348 27.1962 9.1976C27.2715 10.7795 27.2886 11.2538 27.2958 15.2576C27.303 19.2614 27.2889 19.7369 27.2196 21.3176C27.1557 22.7801 26.9133 23.5745 26.7096 24.1043C26.4396 24.8048 26.1141 25.3043 25.5903 25.8311C25.0665 26.3579 24.5676 26.6825 23.8674 26.9561C23.3394 27.1622 22.5453 27.4082 21.0846 27.4778C19.5027 27.5522 19.0287 27.5678 15.0231 27.5765C11.0175 27.5852 10.545 27.569 8.96312 27.5006M21.1911 7.2623C21.1917 7.61834 21.2979 7.96619 21.4962 8.26188C21.6945 8.55758 21.976 8.78782 22.3052 8.92349C22.6344 9.05916 22.9964 9.09416 23.3454 9.02408C23.6945 8.954 24.015 8.78197 24.2662 8.52976C24.5175 8.27754 24.6884 7.95647 24.7572 7.60715C24.826 7.25783 24.7897 6.89595 24.6528 6.56729C24.5159 6.23862 24.2846 5.95792 23.9882 5.7607C23.6918 5.56348 23.3436 5.45859 22.9875 5.4593C22.5102 5.46026 22.0529 5.65073 21.716 5.98884C21.3791 6.32695 21.1903 6.78502 21.1911 7.2623ZM7.29812 15.2942C7.30652 19.5482 10.7613 22.9889 15.0144 22.9808C19.2675 22.9727 22.7106 19.5182 22.7025 15.2642C22.6944 11.0102 19.2387 7.5686 14.985 7.577C10.7313 7.5854 7.29002 11.0408 7.29812 15.2942ZM9.99992 15.2888C9.99797 14.2999 10.2893 13.3326 10.8371 12.5092C11.3849 11.6859 12.1645 11.0435 13.0774 10.6632C13.9903 10.283 14.9955 10.182 15.9658 10.373C16.9361 10.564 17.828 11.0384 18.5286 11.7363C19.2293 12.4342 19.7072 13.3242 19.9021 14.2937C20.0969 15.2633 19.9999 16.2688 19.6233 17.1832C19.2466 18.0976 18.6073 18.8798 17.7862 19.4308C16.965 19.9819 15.9988 20.277 15.0099 20.279C14.3533 20.2804 13.7028 20.1524 13.0956 19.9023C12.4884 19.6523 11.9365 19.2851 11.4712 18.8217C11.006 18.3583 10.6366 17.8078 10.3842 17.2016C10.1317 16.5954 10.0011 15.9454 9.99992 15.2888Z" fill="white"/>
</svg>
