<svg width="201" height="163" viewBox="0 0 201 163" fill="none" xmlns="http://www.w3.org/2000/svg">
<path fill-rule="evenodd" clip-rule="evenodd" d="M193.181 9.86852C204.196 21.8151 202.837 39.9053 190.146 50.2741L148.963 83.9208C130.691 98.8486 103.762 99.5481 84.644 85.5916L68.6599 73.9231L83.031 126.532C87.2161 141.852 77.4151 157.465 61.1398 161.405C44.8646 165.344 28.2782 156.118 24.0931 140.798L2.34133 61.1707C-9.69393 17.113 44.3458 -16.3187 82.5342 11.5592L115.36 35.5224L150.257 7.01156C162.948 -3.3572 182.166 -2.0781 193.181 9.86852Z" fill="url(#paint0_linear_219_3040)" fill-opacity="0.85"/>
<path opacity="0.8" d="M200.583 99.7844C200.583 111.611 190.996 121.198 179.17 121.198C167.343 121.198 157.756 111.611 157.756 99.7844C157.756 87.9581 167.343 78.3711 179.17 78.3711C190.996 78.3711 200.583 87.9581 200.583 99.7844Z" fill="#59F9CD"/>
<path d="M183.452 138.953C183.452 146.049 177.7 151.801 170.604 151.801C163.509 151.801 157.756 146.049 157.756 138.953C157.756 131.858 163.509 126.105 170.604 126.105C177.7 126.105 183.452 131.858 183.452 138.953Z" fill="#5DFAC3" fill-opacity="0.8"/>
<path d="M155.233 153.969C155.233 157.754 152.165 160.822 148.381 160.822C144.597 160.822 141.529 157.754 141.529 153.969C141.529 150.185 144.597 147.117 148.381 147.117C152.165 147.117 155.233 150.185 155.233 153.969Z" fill="#62FBB5"/>
<defs>
<linearGradient id="paint0_linear_219_3040" x1="100.629" y1="0" x2="100.629" y2="162.314" gradientUnits="userSpaceOnUse">
<stop stop-color="#38F9D7"/>
<stop offset="1" stop-color="#88FFA9"/>
</linearGradient>
</defs>
</svg>
